<?xml version="1.0" encoding="utf-8"?>
<!-- Generator: Adobe Illustrator 16.0.3, SVG Export Plug-In . SVG Version: 6.00 Build 0)  -->
<!DOCTYPE svg PUBLIC "-//W3C//DTD SVG 1.1//EN" "http://www.w3.org/Graphics/SVG/1.1/DTD/svg11.dtd">
<svg version="1.1" id="Ebene_1" xmlns="http://www.w3.org/2000/svg" xmlns:xlink="http://www.w3.org/1999/xlink" x="0px" y="0px"
	 width="30px" height="30px" viewBox="0 0 30 30" enable-background="new 0 0 30 30" xml:space="preserve">
<g>
	<path fill="#FFFFFF" stroke="#323132" stroke-width="6" stroke-miterlimit="10" d="M21.63,12.358
		c0.094,0.096,0.119,0.193,0.047,0.336c-0.047,0.12-0.145,0.192-0.239,0.24c-0.12,0.048-0.241,0.048-0.337-0.023l-1.177-1.176
		l-2.328,2.184L26.6,22.92c0.313,0.313,0.454,0.697,0.383,1.129c-0.07,0.433-0.263,0.793-0.601,1.081
		c-0.313,0.287-0.67,0.481-1.08,0.601c-0.408,0.096-0.79-0.025-1.128-0.36l-9.098-9.098l-6.867,6.434l2.665,2.665
		c0.121,0.145,0.096,0.36-0.119,0.673c-0.192,0.313-0.456,0.575-0.769,0.769c-0.312,0.216-0.528,0.239-0.671,0.119l-6.243-6.243
		c-0.119-0.119-0.096-0.359,0.121-0.648c0.191-0.336,0.456-0.575,0.768-0.79c0.312-0.194,0.527-0.241,0.696-0.097l2.665,2.664
		l6.409-6.889L4.656,5.853C4.32,5.542,4.2,5.157,4.271,4.725c0.072-0.456,0.265-0.816,0.6-1.104c0.313-0.288,0.673-0.48,1.081-0.577
		c0.409-0.119,0.793,0,1.128,0.361l9.027,9.002l2.184-2.328l-1.175-1.153c-0.098-0.096-0.098-0.216-0.05-0.336
		c0.05-0.119,0.145-0.215,0.265-0.264c0.119-0.049,0.216-0.024,0.313,0.048L21.63,12.358z"/>
</g>
<g>
	<path fill="#FFFFFF" d="M21.63,12.359c0.094,0.096,0.119,0.192,0.047,0.336c-0.047,0.12-0.145,0.192-0.239,0.239
		c-0.12,0.049-0.241,0.049-0.337-0.023l-1.177-1.176l-2.328,2.184L26.6,22.92c0.313,0.313,0.454,0.697,0.383,1.129
		c-0.07,0.433-0.263,0.793-0.601,1.081c-0.313,0.287-0.67,0.481-1.08,0.601c-0.408,0.096-0.79-0.025-1.128-0.36l-9.098-9.098
		l-6.867,6.434l2.665,2.665c0.121,0.145,0.096,0.36-0.119,0.673c-0.192,0.313-0.456,0.575-0.769,0.769
		c-0.312,0.216-0.528,0.239-0.671,0.119l-6.243-6.243c-0.119-0.119-0.096-0.359,0.121-0.648c0.191-0.336,0.456-0.575,0.768-0.79
		c0.312-0.194,0.527-0.241,0.696-0.097l2.665,2.664l6.409-6.889L4.656,5.853C4.32,5.542,4.2,5.158,4.271,4.725
		c0.072-0.456,0.265-0.816,0.6-1.104c0.313-0.288,0.673-0.48,1.081-0.577c0.409-0.119,0.793,0,1.128,0.361l9.027,9.002l2.184-2.328
		l-1.175-1.153c-0.098-0.096-0.098-0.215-0.05-0.336c0.05-0.119,0.145-0.215,0.265-0.264c0.119-0.049,0.216-0.023,0.313,0.049
		L21.63,12.359z"/>
</g>
</svg>
