<?xml version="1.0" encoding="utf-8"?>
<!-- Generator: Adobe Illustrator 16.0.3, SVG Export Plug-In . SVG Version: 6.00 Build 0)  -->
<!DOCTYPE svg PUBLIC "-//W3C//DTD SVG 1.1//EN" "http://www.w3.org/Graphics/SVG/1.1/DTD/svg11.dtd">
<svg version="1.1" id="Ebene_1" xmlns="http://www.w3.org/2000/svg" xmlns:xlink="http://www.w3.org/1999/xlink" x="0px" y="0px"
	 width="40px" height="40px" viewBox="0 0 40 40" enable-background="new 0 0 40 40" xml:space="preserve">
<rect x="4.98" y="16.274" fill="none" width="26.667" height="11.96"/>
<g>
	<path fill="#ABABAB" d="M10.956,19.995c0,4.994,4.053,9.054,9.042,9.054c4.987,0,9.045-4.061,9.045-9.054
		c0-4.986-4.06-9.044-9.045-9.044C15.009,10.95,10.956,15.007,10.956,19.995z M0.051,19.993c0-11.001,8.954-19.95,19.95-19.95
		c11.005,0,19.948,8.948,19.948,19.95c0,11.011-8.943,19.964-19.948,19.964C9.005,39.957,0.051,31.004,0.051,19.993z"/>
	<circle fill="#F1F1D9" cx="20.14" cy="19.881" r="11.506"/>
</g>
</svg>
