<?xml version="1.0" encoding="utf-8"?>
<!-- Generator: Adobe Illustrator 16.0.3, SVG Export Plug-In . SVG Version: 6.00 Build 0)  -->
<!DOCTYPE svg PUBLIC "-//W3C//DTD SVG 1.1//EN" "http://www.w3.org/Graphics/SVG/1.1/DTD/svg11.dtd">
<svg version="1.1" id="Ebene_1" xmlns="http://www.w3.org/2000/svg" xmlns:xlink="http://www.w3.org/1999/xlink" x="0px" y="0px"
	 width="40px" height="40px" viewBox="0 0 40 40" enable-background="new 0 0 40 40" xml:space="preserve">
<g>
	<path fill="#FFFFFF" d="M37.575,0H2.425C1.087,0,0,1.086,0,2.425v35.15C0,38.914,1.086,40,2.425,40h35.15
		C38.914,40,40,38.914,40,37.575V2.425C40,1.086,38.915,0,37.575,0L37.575,0z"/>
	<path fill="#21409A" d="M36.439,34.539c0,0.831-0.673,1.504-1.504,1.504H5.859l0,0c-0.831,0-1.506-0.674-1.506-1.504V5.461
		c0-0.831,0.675-1.504,1.506-1.504h29.076c0.831,0,1.504,0.673,1.504,1.504V34.539L36.439,34.539z"/>
</g>
</svg>
