<?xml version="1.0" encoding="utf-8"?>
<!-- Generator: Adobe Illustrator 16.0.3, SVG Export Plug-In . SVG Version: 6.00 Build 0)  -->
<!DOCTYPE svg PUBLIC "-//W3C//DTD SVG 1.1//EN" "http://www.w3.org/Graphics/SVG/1.1/DTD/svg11.dtd">
<svg version="1.1" id="Ebene_1" xmlns="http://www.w3.org/2000/svg" xmlns:xlink="http://www.w3.org/1999/xlink" x="0px" y="0px"
	 width="30px" height="30px" viewBox="0 0 30 30" enable-background="new 0 0 30 30" xml:space="preserve">
<g opacity="0.95">
	<path fill="#FFFFFF" stroke="#047646" stroke-width="6" stroke-linejoin="round" stroke-miterlimit="10" d="M13.434,6.492
		l-2.444,2.444c1.661,1.66,3.069,3.698,4.042,6.016c0.938-2.317,2.414-4.355,4.073-6.016l-2.477-2.444L27,3.674l-2.758,10.433
		l-2.443-2.443c-2.947,2.944-4.856,6.422-4.856,11.403v3.26H13.12v-3.26c0-4.981-1.88-8.459-4.823-11.403l-2.476,2.443L3,3.674
		L13.434,6.492z"/>
</g>
<g>
	<path fill="#FFFFFF" d="M13.434,6.492l-2.444,2.444c1.661,1.66,3.069,3.698,4.042,6.016c0.938-2.317,2.414-4.355,4.073-6.016
		l-2.477-2.444L27,3.674l-2.758,10.433l-2.443-2.443c-2.947,2.944-4.856,6.422-4.856,11.403v3.26H13.12v-3.26
		c0-4.981-1.88-8.459-4.823-11.403L5.82,14.106L3,3.674L13.434,6.492z"/>
</g>
</svg>
