<?xml version="1.0" encoding="utf-8"?>
<!-- Generator: Adobe Illustrator 16.0.3, SVG Export Plug-In . SVG Version: 6.00 Build 0)  -->
<!DOCTYPE svg PUBLIC "-//W3C//DTD SVG 1.1//EN" "http://www.w3.org/Graphics/SVG/1.1/DTD/svg11.dtd">
<svg version="1.1" id="Ebene_1" xmlns="http://www.w3.org/2000/svg" xmlns:xlink="http://www.w3.org/1999/xlink" x="0px" y="0px"
	 width="40px" height="40px" viewBox="0 0 40 40" enable-background="new 0 0 40 40" xml:space="preserve">
<g>
	<path fill="#FFFFFF" d="M5.001,29.457c0-1.724-1.4-3.125-3.125-3.125c-0.677,0-1.335,0.221-1.876,0.626v4.999
		c0.541,0.406,1.199,0.625,1.876,0.625C3.6,32.582,5.001,31.182,5.001,29.457L5.001,29.457z"/>
	<path fill="#FFFFFF" d="M39.268,10.796L39.268,10.796l-5.002-5.001c-0.469-0.47-1.104-0.731-1.768-0.731H18.09
		c-0.664,0-1.298,0.262-1.766,0.731l0,0l-5.81,5.809l-9.75,0.809C0.333,12.448,0,12.809,0,13.243v5.194
		c0,0.46,0.374,0.833,0.834,0.833h0.917v-0.958c0-2.761,2.239-5,5-5c2.759,0,4.999,2.239,4.999,5l0,0v0.958h16.584v-0.958
		c0-2.761,2.238-5,5-5c2.759,0,4.999,2.239,4.999,5v0.958h0.834c0.46,0,0.833-0.373,0.833-0.833v-5.874
		C40,11.899,39.737,11.265,39.268,10.796L39.268,10.796z M24.252,10.897c-0.002,0.46-0.374,0.832-0.835,0.832h-9.465
		c-0.276,0-0.499-0.224-0.499-0.5c0-0.132,0.052-0.261,0.146-0.354l3.984-3.985l0,0c0.156-0.157,0.369-0.244,0.591-0.244h5.242
		c0.461,0,0.835,0.373,0.835,0.833V10.897L24.252,10.897z M36.636,11.729h-9.965c-0.46,0-0.834-0.374-0.834-0.833V7.479
		c0-0.46,0.374-0.833,0.834-0.833h5.743c0.222,0,0.434,0.087,0.591,0.244l3.984,3.985c0.095,0.093,0.146,0.222,0.146,0.354
		C37.136,11.506,36.913,11.729,36.636,11.729L36.636,11.729z"/>
	<polygon fill="#FFFFFF" points="0,22.937 40,22.937 40,25.52 0,25.52 	"/>
	<polygon fill="#FFFFFF" points="0,33.353 40,33.353 40,34.936 0,34.936 	"/>
	<path fill="#FFFFFF" d="M12.912,29.444c0-1.726-1.4-3.125-3.124-3.125c-1.725,0-3.125,1.399-3.125,3.125s1.4,3.125,3.125,3.125
		C11.511,32.569,12.912,31.17,12.912,29.444L12.912,29.444z"/>
	<path fill="#FFFFFF" d="M29.068,29.444c0-1.726-1.398-3.125-3.124-3.125s-3.125,1.399-3.125,3.125s1.399,3.125,3.125,3.125
		S29.068,31.17,29.068,29.444L29.068,29.444z"/>
	<path fill="#FFFFFF" d="M37.085,29.444c0-1.726-1.4-3.125-3.126-3.125c-1.724,0-3.125,1.399-3.125,3.125s1.401,3.125,3.125,3.125
		C35.684,32.569,37.085,31.17,37.085,29.444L37.085,29.444z"/>
	<path fill="#FFFFFF" d="M37.125,18.294c0-2.093-1.699-3.792-3.791-3.792c-2.094,0-3.791,1.699-3.791,3.792
		c0,2.094,1.697,3.792,3.791,3.792C35.426,22.087,37.125,20.387,37.125,18.294L37.125,18.294z M31.251,18.294
		c0-1.15,0.932-2.083,2.082-2.083s2.083,0.933,2.083,2.083s-0.933,2.084-2.083,2.084S31.251,19.444,31.251,18.294L31.251,18.294z"/>
	<path fill="#FFFFFF" d="M10.573,18.294c0-2.093-1.698-3.792-3.79-3.792c-2.095,0-3.793,1.699-3.793,3.792
		c0,2.094,1.698,3.792,3.793,3.792C8.875,22.087,10.573,20.387,10.573,18.294L10.573,18.294z M4.699,18.294
		c0-1.15,0.933-2.083,2.084-2.083c1.148,0,2.082,0.933,2.082,2.083s-0.934,2.084-2.082,2.084
		C5.632,20.378,4.699,19.444,4.699,18.294L4.699,18.294z"/>
</g>
</svg>
