<?xml version="1.0" encoding="utf-8"?>
<!-- Generator: Adobe Illustrator 16.0.3, SVG Export Plug-In . SVG Version: 6.00 Build 0)  -->
<!DOCTYPE svg PUBLIC "-//W3C//DTD SVG 1.1//EN" "http://www.w3.org/Graphics/SVG/1.1/DTD/svg11.dtd">
<svg version="1.1" id="Ebene_1" xmlns="http://www.w3.org/2000/svg" xmlns:xlink="http://www.w3.org/1999/xlink" x="0px" y="0px"
	 width="40px" height="40px" viewBox="0 0 40 40" enable-background="new 0 0 40 40" xml:space="preserve">
<g>
	<polygon fill="#21409A" points="40,0 0,0 0,40 40,40 	"/>
	<path fill="#FFFFFF" d="M6.501,28.511c0-1.552-1.26-2.813-2.813-2.813c-0.609,0-1.202,0.198-1.688,0.563v4.499
		c0.487,0.365,1.08,0.563,1.688,0.563C5.24,31.324,6.501,30.064,6.501,28.511L6.501,28.511z"/>
	<path fill="#FFFFFF" d="M37.341,11.717L37.341,11.717L32.84,7.216c-0.422-0.423-0.994-0.659-1.591-0.659H18.281
		c-0.598,0-1.168,0.236-1.59,0.659l0,0l-5.228,5.228l-8.775,0.728C2.299,13.203,2,13.528,2,13.919v4.675
		c0,0.414,0.336,0.75,0.751,0.75h0.825v-0.862c0-2.484,2.016-4.5,4.5-4.5c2.483,0,4.5,2.016,4.5,4.5l0,0v0.862H27.5v-0.862
		c0-2.484,2.015-4.5,4.5-4.5c2.483,0,4.5,2.016,4.5,4.5v0.862h0.75c0.414,0,0.75-0.336,0.75-0.75v-5.286
		C38,12.71,37.763,12.138,37.341,11.717L37.341,11.717z M23.826,11.807c-0.001,0.414-0.336,0.749-0.751,0.749h-8.519
		c-0.249,0-0.449-0.201-0.449-0.45c0-0.119,0.046-0.234,0.131-0.318l3.586-3.587l0,0c0.141-0.141,0.333-0.22,0.531-0.22h4.719
		c0.415,0,0.751,0.336,0.751,0.75V11.807L23.826,11.807z M34.973,12.556h-8.969c-0.414,0-0.75-0.337-0.75-0.75V8.731
		c0-0.414,0.336-0.75,0.75-0.75h5.169c0.199,0,0.39,0.079,0.531,0.22l3.586,3.587c0.084,0.084,0.132,0.199,0.132,0.318
		C35.423,12.355,35.222,12.556,34.973,12.556L34.973,12.556z"/>
	<polygon fill="#FFFFFF" points="2,22.643 38,22.643 38,24.969 2,24.969 	"/>
	<polygon fill="#FFFFFF" points="2,32.018 38,32.018 38,33.443 2,33.443 	"/>
	<path fill="#FFFFFF" d="M13.621,28.5c0-1.553-1.26-2.813-2.812-2.813c-1.553,0-2.813,1.26-2.813,2.813s1.26,2.813,2.813,2.813
		C12.361,31.312,13.621,30.052,13.621,28.5L13.621,28.5z"/>
	<path fill="#FFFFFF" d="M28.161,28.5c0-1.553-1.259-2.813-2.812-2.813c-1.552,0-2.813,1.26-2.813,2.813s1.26,2.813,2.813,2.813
		C26.903,31.312,28.161,30.052,28.161,28.5L28.161,28.5z"/>
	<path fill="#FFFFFF" d="M35.376,28.5c0-1.553-1.26-2.813-2.813-2.813c-1.551,0-2.812,1.26-2.812,2.813s1.261,2.813,2.812,2.813
		C34.116,31.312,35.376,30.052,35.376,28.5L35.376,28.5z"/>
	<path fill="#FFFFFF" d="M35.412,18.465c0-1.884-1.529-3.413-3.412-3.413c-1.884,0-3.412,1.529-3.412,3.413s1.528,3.412,3.412,3.412
		C33.883,21.878,35.412,20.348,35.412,18.465L35.412,18.465z M30.125,18.465c0-1.035,0.839-1.875,1.875-1.875
		s1.875,0.84,1.875,1.875S33.035,20.34,32,20.34S30.125,19.5,30.125,18.465L30.125,18.465z"/>
	<path fill="#FFFFFF" d="M11.516,18.465c0-1.884-1.528-3.413-3.412-3.413c-1.884,0-3.413,1.529-3.413,3.413s1.529,3.412,3.413,3.412
		C9.988,21.878,11.516,20.348,11.516,18.465L11.516,18.465z M6.229,18.465c0-1.035,0.839-1.875,1.875-1.875
		c1.034,0,1.875,0.84,1.875,1.875s-0.84,1.875-1.875,1.875C7.068,20.34,6.229,19.5,6.229,18.465L6.229,18.465z"/>
</g>
</svg>
