<?xml version="1.0" encoding="utf-8"?>
<!-- Generator: Adobe Illustrator 16.0.3, SVG Export Plug-In . SVG Version: 6.00 Build 0)  -->
<!DOCTYPE svg PUBLIC "-//W3C//DTD SVG 1.1//EN" "http://www.w3.org/Graphics/SVG/1.1/DTD/svg11.dtd">
<svg version="1.1" id="Ebene_1" xmlns="http://www.w3.org/2000/svg" xmlns:xlink="http://www.w3.org/1999/xlink" x="0px" y="0px"
	 width="40px" height="40px" viewBox="0 0 40 40" enable-background="new 0 0 40 40" xml:space="preserve">
<g>
	<polygon fill="#21409A" points="0,0 40,0 40,40 0,40 	"/>
	<path fill="#FFFFFF" d="M3.97,32.646c-0.382,0-0.693-0.31-0.693-0.693c0-0.029,0-0.065,0.01-0.091l0,0l0.584-4.121h7.167v4.905
		H3.97L3.97,32.646z"/>
	<path fill="#FFFFFF" d="M20.696,12.986h15.912v-1.275H23.616l4.079-2.768L20.02,4.59l-7.622,4.354h-0.047l4.077,2.768H7.961l0,0
		c-1.03,0-1.908,0.755-2.054,1.775L4.059,26.426h32.549v-6.839H20.696l0,0c-0.372,0-0.677-0.303-0.677-0.678
		c0-0.372,0.305-0.675,0.677-0.675h15.905v-1.278H20.696l0,0c-0.372,0-0.677-0.299-0.677-0.672c0-0.371,0.305-0.671,0.677-0.671
		h15.905v-1.284H20.696c-0.372,0-0.677-0.299-0.677-0.669C20.02,13.286,20.324,12.986,20.696,12.986L20.696,12.986z M11.457,18.894
		c0,0.384-0.31,0.693-0.693,0.693H7.16c-0.383,0-0.69-0.31-0.69-0.693c0-0.029,0-0.063,0.003-0.1l0,0l0.747-5.215
		c0.051-0.342,0.341-0.593,0.684-0.593h2.856c0.383,0,0.693,0.31,0.693,0.69v5.217H11.457z M18.77,11.711l-3.916-2.658L20.02,6.1
		l5.188,2.94l-3.932,2.671H18.77L18.77,11.711z"/>
	<path fill="#FFFFFF" d="M27.776,31.097c0-1.943-1.578-3.525-3.525-3.525c-1.946,0-3.525,1.582-3.525,3.525
		c0,1.947,1.579,3.525,3.525,3.525C26.198,34.622,27.776,33.044,27.776,31.097L27.776,31.097z"/>
	<path fill="#FFFFFF" d="M19.466,31.097c0-1.943-1.578-3.525-3.521-3.525c-1.947,0-3.527,1.582-3.527,3.525
		c0,1.947,1.58,3.525,3.527,3.525C17.891,34.622,19.466,33.044,19.466,31.097L19.466,31.097z"/>
	<polygon fill="#FFFFFF" points="3.441,3.417 3.441,4.103 36.602,4.103 36.602,3.417 	"/>
	<polygon fill="#FFFFFF" points="36.602,36.582 36.602,35.271 3.441,35.271 3.441,36.582 	"/>
	<polygon fill="#FFFFFF" points="36.602,27.946 36.602,27.734 29.007,27.734 29.007,32.646 36.602,32.646 	"/>
</g>
</svg>
