<?xml version="1.0" encoding="utf-8"?>
<!-- Generator: Adobe Illustrator 16.0.3, SVG Export Plug-In . SVG Version: 6.00 Build 0)  -->
<!DOCTYPE svg PUBLIC "-//W3C//DTD SVG 1.1//EN" "http://www.w3.org/Graphics/SVG/1.1/DTD/svg11.dtd">
<svg version="1.1" id="Ebene_1" xmlns="http://www.w3.org/2000/svg" xmlns:xlink="http://www.w3.org/1999/xlink" x="0px" y="0px"
	 width="40px" height="40px" viewBox="0 0 40 40" enable-background="new 0 0 40 40" xml:space="preserve">
<g>
	<polygon fill="#21409A" points="40,0 0,0 0,40 40,40 	"/>
	<path fill="#FFFFFF" d="M35.974,29.519c0.387,0,0.693-0.307,0.693-0.69V12.62c0-0.699-0.469-1.313-1.152-1.484L5.236,3.413l0,0
		c-0.122-0.033-0.249-0.05-0.379-0.05c-0.84,0-1.523,0.687-1.523,1.531V20.84c0,0.324,0.213,0.598,0.524,0.674l31.95,7.991l0,0
		C35.862,29.519,35.918,29.519,35.974,29.519L35.974,29.519z M11.32,7.077v8.333c0,0.383-0.313,0.696-0.697,0.696H5.414
		c-0.384,0-0.693-0.313-0.693-0.696V7.077c0-0.385,0.314-0.694,0.693-0.694h5.209C11.008,6.387,11.32,6.692,11.32,7.077L11.32,7.077
		z M19.304,9.116v8.333c0,0.385-0.307,0.697-0.693,0.697h-5.207c-0.384,0-0.696-0.313-0.696-0.697V9.116
		c0-0.383,0.313-0.696,0.696-0.696h5.21C18.989,8.42,19.304,8.737,19.304,9.116L19.304,9.116z M27.292,11.15v8.334
		c0,0.382-0.313,0.696-0.697,0.696H21.39c-0.382,0-0.693-0.314-0.693-0.696V11.15c0-0.384,0.307-0.696,0.693-0.696h5.212
		C26.979,10.454,27.292,10.767,27.292,11.15L27.292,11.15z M35.276,13.19v8.333c0,0.384-0.315,0.693-0.693,0.693h-5.208
		c-0.384,0-0.696-0.315-0.696-0.693V13.19c0-0.385,0.313-0.697,0.696-0.697h5.212C34.968,12.493,35.276,12.806,35.276,13.19
		L35.276,13.19z"/>
	<polygon fill="#FFFFFF" points="3.333,26.895 36.667,35.234 36.667,36.663 3.333,28.33 	"/>
	<path fill="#FFFFFF" d="M28.933,29.993c0,1.113-0.905,2.019-2.016,2.019c-1.109,0-2.015-0.905-2.015-2.019
		c0-1.109,0.901-2.012,2.015-2.012C28.027,27.981,28.933,28.88,28.933,29.993L28.933,29.993z"/>
	<path fill="#FFFFFF" d="M33.938,31.348c0,1.113-0.901,2.019-2.012,2.019c-1.113,0-2.018-0.905-2.018-2.019
		c0-1.106,0.904-2.012,2.018-2.012S33.938,30.241,33.938,31.348L33.938,31.348z"/>
	<path fill="#FFFFFF" d="M15.153,26.546c0,1.113-0.903,2.016-2.017,2.016s-2.014-0.902-2.014-2.016c0-1.109,0.9-2.015,2.014-2.015
		C14.246,24.531,15.153,25.433,15.153,26.546L15.153,26.546z"/>
	<path fill="#FFFFFF" d="M10.034,25.293c0,1.11-0.901,2.019-2.015,2.019s-2.012-0.905-2.012-2.019s0.899-2.012,2.012-2.012
		S10.034,24.18,10.034,25.293L10.034,25.293z"/>
</g>
</svg>
