<?xml version="1.0" encoding="utf-8"?>
<!-- Generator: Adobe Illustrator 16.0.3, SVG Export Plug-In . SVG Version: 6.00 Build 0)  -->
<!DOCTYPE svg PUBLIC "-//W3C//DTD SVG 1.1//EN" "http://www.w3.org/Graphics/SVG/1.1/DTD/svg11.dtd">
<svg version="1.1" id="Ebene_1" xmlns="http://www.w3.org/2000/svg" xmlns:xlink="http://www.w3.org/1999/xlink" x="0px" y="0px"
	 width="40px" height="40px" viewBox="0 0 40 40" enable-background="new 0 0 40 40" xml:space="preserve">
<g>
	<polygon fill="#21409A" points="40,0 0,0 0,40 40,40 	"/>
	<path fill="#FFFFFF" d="M35.143,12.026h1.371v-1.371H26.158c-0.377,0-0.689,0.309-0.689,0.685c0,0.384,0.313,0.689,0.689,0.689
		h0.965l-0.691,4.115h-8.433v4.116H20.4l-0.687,4.114H3.184L7.3,32.174l2.939-0.617c0.523-0.066,1.055-0.105,1.587-0.117
		c0.531,0.012,1.064,0.051,1.591,0.117l4.61,0.973c0.669,0.141,1.353,0.211,2.03,0.211c0.683,0,1.366-0.07,2.029-0.211l4.612-0.973
		c0.527-0.066,1.058-0.105,1.588-0.117c0.527,0.012,1.063,0.051,1.59,0.117l4.609,0.973c0.67,0.141,1.351,0.211,2.034,0.211v-8.365
		h-1.37c-0.379,0-0.691-0.313-0.691-0.689v-2.742c0-0.38,0.313-0.683,0.691-0.683h1.37v-4.116h-1.37
		c-0.379,0-0.691-0.308-0.691-0.688v-2.743C34.459,12.334,34.766,12.026,35.143,12.026L35.143,12.026z M26.504,23.686
		c0,0.377-0.307,0.689-0.687,0.689h-4.04c-0.381,0-0.689-0.313-0.689-0.689c0-0.039,0.003-0.072,0.009-0.111l0.46-2.74
		c0.053-0.334,0.338-0.573,0.673-0.573h3.588c0.38,0,0.687,0.303,0.687,0.683V23.686L26.504,23.686z M33.223,23.686
		c0,0.377-0.307,0.689-0.684,0.689h-4.115c-0.38,0-0.689-0.313-0.689-0.689v-2.742c0-0.38,0.31-0.683,0.689-0.683h4.115
		c0.377,0,0.684,0.303,0.684,0.683V23.686L33.223,23.686z M33.223,15.457c0,0.38-0.307,0.688-0.684,0.688h-4.043
		c-0.377,0-0.684-0.308-0.684-0.688c0-0.037,0-0.078,0.006-0.117l0.457-2.743c0.059-0.323,0.341-0.57,0.684-0.57h3.586
		c0.375,0,0.681,0.308,0.681,0.688v2.743H33.223z"/>
	<path fill="#FFFFFF" d="M29.654,32.846c-0.455-0.063-0.91-0.092-1.367-0.105c-0.461,0.011-0.921,0.043-1.37,0.105l-4.56,0.957
		c-0.761,0.162-1.531,0.237-2.304,0.24c-0.774-0.003-1.54-0.078-2.3-0.24l-4.558-0.957c-0.46-0.063-0.912-0.092-1.373-0.105
		c-0.456,0.011-0.916,0.043-1.373,0.105l-4.56,0.957c-0.753,0.162-1.523,0.237-2.299,0.24v1.303c0.862,0,1.723-0.086,2.57-0.268
		l4.506-0.951c0.383-0.039,0.773-0.074,1.156-0.081c0.387,0.017,0.771,0.042,1.161,0.081l4.498,0.951
		c0.851,0.182,1.708,0.268,2.575,0.268c0.858,0,1.72-0.086,2.563-0.268l4.509-0.951c0.381-0.039,0.768-0.074,1.152-0.081
		c0.391,0.017,0.778,0.042,1.162,0.081l4.508,0.951c0.84,0.182,1.707,0.268,2.566,0.268v-1.303c-0.775-0.003-1.543-0.078-2.299-0.24
		L29.654,32.846L29.654,32.846z"/>
</g>
</svg>
