<?xml version="1.0" encoding="utf-8"?>
<!-- Generator: Adobe Illustrator 16.0.3, SVG Export Plug-In . SVG Version: 6.00 Build 0)  -->
<!DOCTYPE svg PUBLIC "-//W3C//DTD SVG 1.1//EN" "http://www.w3.org/Graphics/SVG/1.1/DTD/svg11.dtd">
<svg version="1.1" id="Ebene_1" xmlns="http://www.w3.org/2000/svg" xmlns:xlink="http://www.w3.org/1999/xlink" x="0px" y="0px"
	 width="30px" height="30px" viewBox="0 0 30 30" enable-background="new 0 0 30 30" xml:space="preserve">
<g>
	<path stroke="#323132" stroke-width="6" stroke-linejoin="round" stroke-miterlimit="10" d="M27,4.272l-0.214,0.719l-0.578,0.961
		l-4.319,4.776l3.743,12.264l-1.462,1.463l-5.592-10.392l-6.001,5.28l-2.327,1.8l0.958,4.561L9.888,27l-1.824-5.064L3,20.112
		l1.296-1.32l4.561,0.96l1.799-2.328l5.305-5.976L5.304,6.071l1.705-1.703l12.263,3.743l4.777-4.32l0.959-0.575L25.729,3
		l1.057,0.216L27,4.272z"/>
</g>
<g>
	<path fill="#FFFFFF" d="M27,4.272l-0.214,0.719l-0.578,0.961l-4.319,4.776l3.743,12.264l-1.462,1.463l-5.592-10.392l-6.001,5.28
		l-2.327,1.8l0.959,4.561L9.888,27l-1.823-5.064L3,20.112l1.296-1.32l4.561,0.96l1.8-2.328l5.305-5.976L5.304,6.071l1.704-1.703
		l12.264,3.743l4.777-4.32l0.959-0.575L25.729,3l1.057,0.216L27,4.272z"/>
</g>
</svg>
