<?xml version="1.0" encoding="utf-8"?>
<!-- Generator: Adobe Illustrator 16.0.3, SVG Export Plug-In . SVG Version: 6.00 Build 0)  -->
<!DOCTYPE svg PUBLIC "-//W3C//DTD SVG 1.1//EN" "http://www.w3.org/Graphics/SVG/1.1/DTD/svg11.dtd">
<svg version="1.1" id="Ebene_1" xmlns="http://www.w3.org/2000/svg" xmlns:xlink="http://www.w3.org/1999/xlink" x="0px" y="0px"
	 width="30px" height="30px" viewBox="0 0 30 30" enable-background="new 0 0 30 30" xml:space="preserve">
<g>
	<path fill="#58585B" stroke="#323132" stroke-width="6" stroke-linejoin="round" stroke-miterlimit="10" d="M27,4.104l-0.17,0.77
		L26.327,5.93l-5.351,5.735l0.551,1.583l1.01-1.009c0.117-0.119,0.289-0.19,0.503-0.166c0.214,0.023,0.385,0.119,0.55,0.289
		l0.289,0.287c0.169,0.143,0.264,0.336,0.287,0.551c0,0.192-0.05,0.384-0.166,0.504l-1.751,1.751l2.543,7.703l-1.655,1.682
		l-5.183-10.128l-5.114,4.513l-3.24,2.35l0.816,3.889l-1.533,1.536l-1.348-4.535L3,21.12l1.535-1.538l3.888,0.816l2.353-3.241
		l4.512-5.11L4.968,7.055l1.849-1.848l7.729,2.544l1.75-1.728c0.122-0.145,0.287-0.193,0.507-0.193
		c0.215,0.025,0.405,0.12,0.551,0.289l0.289,0.287c0.166,0.167,0.264,0.361,0.287,0.552c0.024,0.218-0.05,0.384-0.171,0.505
		L16.73,8.471l1.606,0.551l5.731-5.352l1.06-0.479L25.895,3l0.937,0.168L27,4.104z"/>
</g>
<g>
	<path fill="#FFFFFF" d="M27,4.104l-0.17,0.77L26.327,5.93l-5.351,5.735l0.551,1.582l1.01-1.008
		c0.117-0.119,0.289-0.189,0.503-0.166s0.385,0.119,0.55,0.289l0.289,0.288c0.169,0.144,0.264,0.336,0.287,0.552
		c0,0.19-0.05,0.383-0.166,0.504l-1.751,1.75l2.543,7.704l-1.655,1.682l-5.183-10.127l-5.114,4.512L9.6,21.574l0.816,3.889
		l-1.533,1.535l-1.348-4.535L3,21.119l1.535-1.537l3.888,0.816l2.353-3.242l4.512-5.11L4.968,7.055l1.849-1.848l7.729,2.544
		l1.75-1.729c0.122-0.145,0.287-0.193,0.507-0.193c0.215,0.025,0.405,0.121,0.551,0.289l0.289,0.287
		c0.166,0.167,0.264,0.361,0.287,0.553c0.024,0.217-0.05,0.383-0.171,0.504L16.73,8.471l1.606,0.551l5.731-5.352l1.06-0.479
		L25.895,3l0.937,0.168L27,4.104z"/>
</g>
</svg>
