<?xml version="1.0" encoding="utf-8"?>
<!-- Generator: Adobe Illustrator 16.0.3, SVG Export Plug-In . SVG Version: 6.00 Build 0)  -->
<!DOCTYPE svg PUBLIC "-//W3C//DTD SVG 1.1//EN" "http://www.w3.org/Graphics/SVG/1.1/DTD/svg11.dtd">
<svg version="1.1" id="Ebene_1" xmlns="http://www.w3.org/2000/svg" xmlns:xlink="http://www.w3.org/1999/xlink" x="0px" y="0px"
	 width="40px" height="40px" viewBox="0 0 40 40" enable-background="new 0 0 40 40" xml:space="preserve">
<rect x="4.98" y="16.274" fill="none" width="26.667" height="11.961"/>
<g>
	<circle fill="#FFFFFF" cx="20.05" cy="20" r="19.155"/>
	<path fill="#ABABAB" d="M0.101,19.993c0-11.001,8.954-19.95,19.951-19.95C31.057,0.043,40,8.991,40,19.993
		c0,11.011-8.943,19.965-19.948,19.965C9.055,39.958,0.101,31.004,0.101,19.993z M3.38,19.993c0,9.207,7.475,16.694,16.672,16.694
		c9.194,0,16.681-7.487,16.681-16.694c0-9.196-7.486-16.677-16.681-16.677C10.855,3.315,3.38,10.796,3.38,19.993z M8.699,19.993
		c0-6.25,5.091-11.34,11.353-11.34c6.271,0,11.372,5.09,11.372,11.34c0,6.277-5.102,11.372-11.372,11.372
		C13.79,31.364,8.699,26.27,8.699,19.993z M11.864,19.993c0,4.523,3.681,8.208,8.188,8.208c4.526,0,8.21-3.685,8.21-8.208
		c0-4.501-3.684-8.176-8.21-8.176C15.545,11.816,11.864,15.491,11.864,19.993z"/>
</g>
</svg>
