<?xml version="1.0" encoding="utf-8"?>
<!-- Generator: Adobe Illustrator 16.0.3, SVG Export Plug-In . SVG Version: 6.00 Build 0)  -->
<!DOCTYPE svg PUBLIC "-//W3C//DTD SVG 1.1//EN" "http://www.w3.org/Graphics/SVG/1.1/DTD/svg11.dtd">
<svg version="1.1" id="Ebene_1" xmlns="http://www.w3.org/2000/svg" xmlns:xlink="http://www.w3.org/1999/xlink" x="0px" y="0px"
	 width="40px" height="40px" viewBox="0 0 40 40" enable-background="new 0 0 40 40" xml:space="preserve">
<circle fill="#FFFFFF" cx="20.19" cy="20.303" r="17.119"/>
<rect x="4.98" y="16.274" fill="none" width="26.667" height="11.96"/>
<g>
	<path fill="#ABABAB" d="M6.247,19.992c0,7.594,6.164,13.77,13.751,13.77c7.583,0,13.756-6.176,13.756-13.77
		c0-7.584-6.174-13.754-13.756-13.754C12.411,6.237,6.247,12.407,6.247,19.992z M0.051,19.993c0-11.001,8.954-19.95,19.95-19.95
		c11.005,0,19.948,8.948,19.948,19.95c0,11.011-8.943,19.964-19.948,19.964C9.005,39.957,0.051,31.004,0.051,19.993z"/>
</g>
</svg>
