<?xml version="1.0" encoding="utf-8"?>
<!-- Generator: Adobe Illustrator 16.0.3, SVG Export Plug-In . SVG Version: 6.00 Build 0)  -->
<!DOCTYPE svg PUBLIC "-//W3C//DTD SVG 1.1//EN" "http://www.w3.org/Graphics/SVG/1.1/DTD/svg11.dtd">
<svg version="1.1" id="Ebene_1" xmlns="http://www.w3.org/2000/svg" xmlns:xlink="http://www.w3.org/1999/xlink" x="0px" y="0px"
	 width="30px" height="30px" viewBox="0 0 30 30" enable-background="new 0 0 30 30" xml:space="preserve">
<g opacity="0.95">
	<path fill="#FFFFFF" stroke="#047646" stroke-width="6" stroke-miterlimit="10" d="M13.406,13.171l-1.98,2.063
		c-0.907-0.633-1.841-0.221-2.612-1.293c-0.493-0.687-0.935-1.375-1.457-2.033c-0.796-1.045-1.621-2.062-2.473-3.078
		C4.361,8.196,3.894,7.427,3.894,6.573c0-0.714,0.33-1.346,0.687-1.951C4.884,4.1,5.542,3,6.23,3c0.247,0,0.468,0.166,0.632,0.357
		l6.598,8.192c0.166,0.248,0.276,0.523,0.276,0.824C13.736,12.677,13.625,12.953,13.406,13.171z M25.749,8.526l-4.014,5.47
		c-0.441,0.604-1.045,1.044-1.842,1.044c-0.55,0-1.046-0.22-1.593-0.22c-0.688,0-1.213,0.247-1.707,0.716l7.202,7.916
		c0.412,0.467,0.881,1.1,0.881,1.786c0,0.881-0.99,1.76-1.871,1.76c-0.602,0-1.098-0.385-1.539-0.798
		c-0.467-0.412-0.85-0.935-1.236-1.402c-0.687-0.824-1.374-1.648-2.007-2.501l-3.299-4.316l-5.523,7.532
		C8.678,26.229,7.825,27,6.862,27c-1.017,0-1.951-0.907-1.951-1.951c0-0.825,0.523-1.649,1.1-2.229l8.054-8.438
		c0.523-0.549,0.908-1.127,0.908-1.897c0-0.88-0.577-1.566-0.577-2.392c0-0.632,0.3-1.182,0.741-1.648l4.701-4.866
		C20.114,3.275,20.497,3,20.911,3c0.303,0,0.852,0.275,0.852,0.604c0,0.33-0.523,0.88-0.717,1.072l-2.638,2.859
		c-0.137,0.193-0.274,0.413-0.274,0.633c0,0.356,0.274,0.632,0.634,0.632c0.244,0,0.494-0.139,0.659-0.331l2.994-3.217
		c0.193-0.193,0.441-0.466,0.744-0.466s0.799,0.44,0.799,0.77c0,0.248-0.193,0.521-0.332,0.714l-2.639,3.492
		c-0.137,0.192-0.246,0.384-0.246,0.604c0,0.356,0.273,0.632,0.631,0.632c0.275,0,0.523-0.166,0.688-0.386l2.363-3.105
		c0.164-0.22,0.631-0.88,0.963-0.88c0.412,0,0.715,0.576,0.715,0.906C26.106,7.894,25.94,8.251,25.749,8.526z"/>
</g>
<g>
	<path fill="#FFFFFF" d="M13.406,13.171l-1.98,2.063c-0.907-0.633-1.841-0.221-2.612-1.293c-0.493-0.687-0.935-1.375-1.456-2.033
		c-0.797-1.045-1.621-2.062-2.473-3.078C4.361,8.196,3.894,7.427,3.894,6.573c0-0.714,0.329-1.346,0.687-1.951
		C4.885,4.1,5.543,3,6.23,3c0.247,0,0.468,0.166,0.632,0.357l6.598,8.192c0.165,0.248,0.276,0.522,0.276,0.824
		C13.736,12.677,13.625,12.953,13.406,13.171z M25.749,8.525l-4.014,5.471c-0.441,0.604-1.045,1.045-1.842,1.045
		c-0.55,0-1.046-0.221-1.593-0.221c-0.688,0-1.213,0.248-1.707,0.717l7.202,7.916c0.412,0.467,0.881,1.1,0.881,1.786
		c0,0.881-0.99,1.76-1.871,1.76c-0.602,0-1.098-0.385-1.539-0.798c-0.467-0.412-0.85-0.935-1.236-1.402
		c-0.687-0.824-1.374-1.648-2.007-2.501l-3.299-4.316l-5.523,7.532C8.678,26.229,7.824,27,6.862,27
		c-1.017,0-1.951-0.907-1.951-1.951c0-0.825,0.523-1.649,1.101-2.229l8.054-8.438c0.523-0.549,0.908-1.128,0.908-1.897
		c0-0.88-0.577-1.566-0.577-2.392c0-0.632,0.301-1.183,0.741-1.648l4.701-4.866C20.114,3.275,20.497,3,20.911,3
		c0.303,0,0.852,0.275,0.852,0.604c0,0.33-0.523,0.88-0.717,1.072l-2.638,2.859c-0.137,0.193-0.274,0.413-0.274,0.634
		c0,0.355,0.274,0.632,0.634,0.632c0.244,0,0.494-0.139,0.659-0.331l2.994-3.217c0.193-0.192,0.441-0.466,0.744-0.466
		s0.799,0.44,0.799,0.77c0,0.248-0.193,0.521-0.332,0.714l-2.639,3.492c-0.137,0.192-0.246,0.385-0.246,0.605
		c0,0.355,0.273,0.632,0.631,0.632c0.275,0,0.523-0.166,0.688-0.386l2.363-3.105c0.164-0.22,0.631-0.88,0.963-0.88
		c0.412,0,0.715,0.576,0.715,0.906C26.106,7.894,25.94,8.251,25.749,8.525z"/>
</g>
</svg>
