<?xml version="1.0" encoding="utf-8"?>
<!-- Generator: Adobe Illustrator 16.0.3, SVG Export Plug-In . SVG Version: 6.00 Build 0)  -->
<!DOCTYPE svg PUBLIC "-//W3C//DTD SVG 1.1//EN" "http://www.w3.org/Graphics/SVG/1.1/DTD/svg11.dtd">
<svg version="1.1" id="Ebene_1" xmlns="http://www.w3.org/2000/svg" xmlns:xlink="http://www.w3.org/1999/xlink" x="0px" y="0px"
	 width="40px" height="40px" viewBox="0 0 40 40" enable-background="new 0 0 40 40" xml:space="preserve">
<g>
	<polygon fill="#21409A" points="40,0 0,0 0,40 40,40 	"/>
	<path fill="#FFFFFF" d="M22.927,5.527c0.123-0.117,0.191-0.285,0.191-0.451c0-0.356-0.293-0.643-0.647-0.643
		c-0.166,0-0.329,0.07-0.452,0.187l-7.188,7.186H9.113c-1.02,0-1.928,0.671-2.224,1.647L3.384,24.941
		c-0.034,0.104-0.047,0.218-0.047,0.325v5.014c0,0.377,0.306,0.693,0.693,0.693h32.64V22.78h-6.735
		c-0.384,0-0.696-0.313-0.696-0.697V13.75c0-0.383,0.306-0.693,0.696-0.693h6.735v-1.25H16.65L22.927,5.527L22.927,5.527z
		 M10.276,24.863c0,0.378-0.306,0.693-0.693,0.693H5.477c-0.381,0-0.693-0.31-0.693-0.693c0-0.071,0.01-0.14,0.029-0.202
		l3.358-11.007l0,0c0.137-0.438,0.542-0.737,0.999-0.737h0.066c0.573,0,1.04,0.467,1.04,1.04V24.863L10.276,24.863z M13.647,24.655
		c0,0.572-0.467,1.041-1.04,1.041c-0.574,0-1.04-0.469-1.04-1.041V13.96c0-0.573,0.466-1.04,1.04-1.04c0.573,0,1.04,0.467,1.04,1.04
		V24.655L13.647,24.655z M18.267,13.75c0-0.383,0.314-0.696,0.693-0.696h8.332c0.384,0,0.696,0.313,0.696,0.696v8.333
		c0,0.385-0.313,0.697-0.696,0.697H18.96c-0.379,0-0.693-0.313-0.693-0.697V13.75L18.267,13.75z M17.014,13.96v10.695
		c0,0.572-0.468,1.041-1.04,1.041c-0.573,0-1.04-0.469-1.04-1.041V13.96c0-0.573,0.467-1.04,1.04-1.04
		C16.546,12.92,17.014,13.387,17.014,13.96L17.014,13.96z"/>
	<path fill="#FFFFFF" d="M19.357,32.36h-7.001c0.58,1.429,1.963,2.359,3.5,2.359C17.393,34.724,18.784,33.789,19.357,32.36
		L19.357,32.36z"/>
	<path fill="#FFFFFF" d="M27.688,32.36L27.688,32.36H20.69c0.572,1.429,1.963,2.359,3.499,2.359
		C25.735,34.724,27.116,33.789,27.688,32.36L27.688,32.36z"/>
	<polygon fill="#FFFFFF" points="3.336,35.417 36.67,35.417 36.67,36.667 3.336,36.667 	"/>
	<polygon fill="#FFFFFF" points="3.336,3.333 36.67,3.333 36.67,4.03 3.336,4.03 	"/>
</g>
</svg>
