<?xml version="1.0" encoding="utf-8"?>
<!-- Generator: Adobe Illustrator 16.0.3, SVG Export Plug-In . SVG Version: 6.00 Build 0)  -->
<!DOCTYPE svg PUBLIC "-//W3C//DTD SVG 1.1//EN" "http://www.w3.org/Graphics/SVG/1.1/DTD/svg11.dtd">
<svg version="1.1" id="Ebene_1" xmlns="http://www.w3.org/2000/svg" xmlns:xlink="http://www.w3.org/1999/xlink" x="0px" y="0px"
	 width="40px" height="40px" viewBox="0 0 40 40" enable-background="new 0 0 40 40" xml:space="preserve">
<g>
	<path fill="#FFFFFF" d="M0,20C0,8.96,8.96,0,20.001,0C31.039,0,40,8.96,40,20s-8.961,20-19.999,20C8.96,40,0,31.039,0,20z M3.84,20
		c0,8.917,7.24,16.161,16.161,16.161c8.917,0,16.158-7.243,16.158-16.161c0-8.92-7.241-16.159-16.158-16.159
		C11.081,3.84,3.84,11.079,3.84,20z M7.641,17.12h24.72v5.758H7.641V17.12z"/>
</g>
<g>
	<path fill="#131D1F" stroke="#000000" stroke-width="6" stroke-miterlimit="10" d="M3,20c0-9.384,7.616-17,17.001-17
		C29.383,3,37,10.616,37,20s-7.617,17-16.999,17C10.616,37,3,29.383,3,20z M6.264,20c0,7.58,6.154,13.736,13.737,13.736
		c7.579,0,13.733-6.156,13.733-13.736c0-7.582-6.154-13.735-13.733-13.735C12.418,6.264,6.264,12.417,6.264,20z M9.495,17.552
		h21.012v4.895H9.495V17.552z"/>
</g>
<g>
	<path fill="#FF99FF" stroke="#000000" stroke-width="6" stroke-miterlimit="10" d="M3,20c0-9.384,7.616-17,17.001-17
		C29.383,3,37,10.616,37,20s-7.617,17-16.999,17C10.616,37,3,29.383,3,20z M6.264,20c0,7.58,6.154,13.736,13.737,13.736
		c7.579,0,13.733-6.156,13.733-13.736c0-7.582-6.154-13.735-13.733-13.735C12.418,6.264,6.264,12.417,6.264,20z M9.495,17.552
		h21.012v4.895H9.495V17.552z"/>
	<g>
		<path fill="#FF99FF" d="M3,20c0-9.384,7.616-17,17.001-17C29.383,3,37,10.616,37,20s-7.617,17-16.999,17C10.616,37,3,29.383,3,20z
			 M6.264,20c0,7.58,6.154,13.736,13.737,13.736c7.579,0,13.733-6.156,13.733-13.736c0-7.582-6.154-13.735-13.733-13.735
			C12.418,6.264,6.264,12.417,6.264,20z M9.495,17.552h21.012v4.895H9.495V17.552z"/>
	</g>
</g>
</svg>
